<svg version="1.1" xmlns="http://www.w3.org/2000/svg" viewBox="0 0 160 196"
     width="160" height="196"><!-- svg-source:excalidraw -->
    <g stroke-linecap="round">
        <g transform="translate(148.4145828198641 13.549430379569515) rotate(0 -67.99996948242188 85.99998474121094)">
            <path
                d="M1.23 -0.7 C-2.74 17.72, -2.78 83.64, -26.06 112.61 C-49.33 141.59, -120.1 163.18, -138.41 173.13 M-1.55 -3.55 C-5.75 15.11, -6.8 87.23, -28.69 115.85 C-50.58 144.48, -115.12 158.34, -132.89 168.21"
                stroke="#B3B3B3"
                stroke-width="2"
                fill="none"
            />
        </g>
        <g transform="translate(148.4145828198641 13.549430379569515) rotate(0 -67.99996948242188 85.99998474121094)">
            <path
                d="M-114.63 151.17 C-118.64 153.67, -121.44 159.05, -132.69 167.75 M-113.61 151 C-119.13 156.49, -123.84 160.89, -132.72 167.29"
                stroke="#B3B3B3"
                stroke-width="2"
                fill="none"
            />
        </g>
        <g transform="translate(148.4145828198641 13.549430379569515) rotate(0 -67.99996948242188 85.99998474121094)">
            <path d="M-108.4 167.1 C-113.89 166.13, -118.06 168.02, -132.69 167.75 M-107.38 166.93 C-114.53 168.01, -120.97 168.01, -132.72 167.29"
                  stroke="#B3B3B3" stroke-width="2" fill="none"/>
        </g>
    </g>
</svg>